<?xml version="1.0" encoding="UTF-8" standalone="no"?>
<svg
   version="1.1"
   width="54.019001mm"
   height="62.375999mm"
   viewBox="0 0 204.16631 235.7518"
   xml:space="preserve"
   id="svg831"
   sodipodi:docname="Untitled (9)(1).svg"
   inkscape:version="1.1.1 (c3084ef, 2021-09-22)"
   xmlns:inkscape="http://www.inkscape.org/namespaces/inkscape"
   xmlns:sodipodi="http://sodipodi.sourceforge.net/DTD/sodipodi-0.dtd"
   xmlns="http://www.w3.org/2000/svg"
   xmlns:svg="http://www.w3.org/2000/svg"><sodipodi:namedview
   id="namedview833"
   pagecolor="#505050"
   bordercolor="#eeeeee"
   borderopacity="1"
   inkscape:pageshadow="0"
   inkscape:pageopacity="0"
   inkscape:pagecheckerboard="false"
   showgrid="false"
   width="54.019mm"
   units="mm"
   inkscape:zoom="1.015625"
   inkscape:cx="219.07692"
   inkscape:cy="320"
   inkscape:window-width="1312"
   inkscape:window-height="872"
   inkscape:window-x="2603"
   inkscape:window-y="485"
   inkscape:window-maximized="0"
   inkscape:current-layer="Lxuw2tV06n7lBmYZBtvw1"
   inkscape:document-units="mm" />
<desc
   id="desc824">Created with Fabric.js 4.6.0</desc>
<defs
   id="defs826">
</defs>
<g
   transform="translate(219.37,162.4)"
   id="Lxuw2tV06n7lBmYZBtvw1"
   style="fill:#ff0000">
<path
   style="opacity:1;fill:#ff0000;fill-rule:nonzero;stroke:#c63b74;stroke-width:0;stroke-linecap:butt;stroke-linejoin:miter;stroke-miterlimit:4;stroke-dasharray:none;stroke-dashoffset:0"
   vector-effect="non-scaling-stroke"
   d="m -185.39189,-44.064349 c 0,-16.73953 13.5857,-30.32523 30.32523,-30.32523 15.03076,0 27.51872,10.95362 29.91163,25.30861 2.58143,-0.29945 5.20703,-0.45338 7.86836,-0.45338 h 1e-5 c 2.48143,0 4.93179,0.13383 7.34426,0.39465 2.22504,-14.55164 14.805241,-25.70989 29.975751,-25.70989 16.73953,0 30.32523,13.5857 30.32523,30.32523 0,9.85911 -4.71271,18.62419 -12.00683,24.16395 6.00361,8.66216 10.0371,18.7917496 11.4505,29.7387996 11.18363,-14.38405 17.84568,-32.4551296 17.84568,-52.0727496 0,-46.88389 -38.05069,-84.934581 -84.934581,-84.934581 -46.88389,0 -84.93458,38.050691 -84.93458,84.934581 0,19.61762 6.66205,37.6886796 17.84566,52.0727296 1.38458,-10.72375 5.28344,-20.6630396 11.08558,-29.2068796 -7.34821,-5.53564 -12.10189,-14.33398 -12.10189,-24.23585 z m 58.78208,27.03002 c -0.001,0 -0.003,0 -0.004,0 -5.4e-4,0 -4.629,0 -10.02289,0 0,-3.4e-4 0,-10.02259 0,-10.02291 0,-3.4e-4 0,-0.1333 0,-0.13363 h -0.003 c -0.0701,-1.70451 -1.47563,-3.06638 -3.19726,-3.06638 -1.72165,0 -3.12713,1.36187 -3.19726,3.06638 h -0.003 c 0,0.002 0,0.13179 0,0.13363 0,0.002 0,10.02106 0,10.0229 -5.45083,0 -10.15596,0 -10.15651,0 v 0.003 c -1.70452,0.0701 -3.06638,1.47562 -3.06638,3.19725 0,1.72164 1.36187,3.12713 3.06638,3.19725 v 0.003 h 10.15651 c 0,9.6e-4 0,10.02193958 0,10.02289958 0,9.6e-4 0,0.13265 0,0.13361 h 0.003 c 0.0701,1.70452002 1.47562,3.06638002 3.19725,3.06638002 1.72164,0 3.12713,-1.36187 3.19725,-3.06638002 h 0.003 c 0,-0.002 0,-0.13202 0,-0.13361 0,-0.002 0,-10.02129958 0,-10.02289958 0.001,0 10.02157,0 10.02289,0 10e-4,0 0.13231,0 0.13363,0 v -0.003 c 1.70451,-0.0701 3.06638,-1.47563 3.06638,-3.19726 0,-1.72165 -1.36187,-3.12713 -3.06638,-3.19726 v -0.003 z m 38.963221,-8.41554 c -9.3e-4,9.3e-4 -0.002,0.002 -0.003,0.003 -3.8e-4,3.8e-4 -3.2732,3.2732 -7.08725,7.08725 -2.4e-4,-2.4e-4 -7.087041,-7.08704 -7.087271,-7.08727 -2.4e-4,-2.4e-4 -0.0943,-0.0943 -0.0945,-0.0945 l -0.002,0.002 c -1.25486,-1.15568 -3.21168,-1.12483 -4.42906,0.0926 -1.21739,1.21739 -1.24823,3.1742 -0.0926,4.42906 l -0.002,0.002 c 0.001,0.001 0.0932,0.0932 0.0945,0.0945 0.001,0.001 7.085961,7.08596 7.087261,7.08726 -3.854321,3.8543196 -7.181351,7.1813496 -7.181741,7.1817396 l 0.002,0.002 c -1.15569,1.25486 -1.12484,3.21168 0.0925,4.42906 1.21738,1.21738 3.1742,1.24822998 4.42906,0.0925 l 0.002,0.002 7.181741,-7.18174 c 6.8e-4,6.8e-4 7.08658,7.08658 7.08726,7.08726 6.8e-4,6.8e-4 0.0938,0.0938 0.0945,0.0945 l 0.002,-0.002 c 1.25486,1.15568998 3.21168,1.12484 4.42906,-0.0925 1.21738,-1.21738 1.24823,-3.1742 0.0925,-4.42906 l 0.002,-0.002 c -0.001,-10e-4 -0.0934,-0.0933 -0.0945,-0.0945 -0.001,-10e-4 -7.08613,-7.0861296 -7.08726,-7.0872596 9.3e-4,-9.3e-4 7.08632,-7.08632 7.08725,-7.08725 9.3e-4,-9.3e-4 0.0936,-0.0936 0.0945,-0.0945 l -0.002,-0.002 c 1.15568,-1.25486 1.12483,-3.21168 -0.0925,-4.42906 -1.21739,-1.21739 -3.1742,-1.24823 -4.42906,-0.0926 l -0.002,-0.002 z m 72.44321,-78.012351 5e-5,117.875721 -102.083391,58.93782 -102.08323,-58.93778 -5e-5,-117.875721 102.08339,-58.93782 z"
   stroke-linecap="round"
   id="path828"
   inkscape:export-filename="/Users/chriz/qmk_firmware/keyboards/sporewoh/keezyboost40/kicub.png"
   inkscape:export-xdpi="60.186119"
   inkscape:export-ydpi="60.186119" />
</g>
</svg>
